<?xml version="1.0" encoding="UTF-8"?>
<svg xmlns="http://www.w3.org/2000/svg" xmlns:xlink="http://www.w3.org/1999/xlink" viewBox="0 0 166.69 167.01">
  <defs>
    <style>
      .cls-1 {
        fill: #fff;
      }

      .cls-2 {
        fill: red;
      }

      .cls-3 {
        fill: #999;
      }

      .cls-4 {
        stroke-dasharray: 0 0 .86 .86;
      }

      .cls-4, .cls-5 {
        fill: none;
        stroke: #fff;
        stroke-miterlimit: 10;
        stroke-width: .5px;
      }

      .cls-6 {
        filter: url(#drop-shadow-1);
      }

      .cls-5, .cls-7 {
        opacity: .7;
      }
    </style>
    <filter id="drop-shadow-1" filterUnits="userSpaceOnUse">
      <feOffset dx="0" dy="7.2"/>
      <feGaussianBlur result="blur" stdDeviation="7.2"/>
      <feFlood flood-color="#000" flood-opacity=".75"/>
      <feComposite in2="blur" operator="in"/>
      <feComposite in="SourceGraphic"/>
    </filter>
  </defs>
  <g id="Layer_2" data-name="Layer 2">
    <path class="cls-6" d="m80.91,1.81c1.34-2.41,3.53-2.41,4.87,0,1.34,2.41,3.76,2.56,5.39.34,1.63-2.22,3.8-1.95,4.83.61,1.02,2.56,3.41,3.01,5.31,1.01,1.9-2,4.01-1.46,4.71,1.21.7,2.67,3.01,3.42,5.14,1.67,2.13-1.75,4.16-.94,4.52,1.79.36,2.73,2.56,3.77,4.89,2.3,2.33-1.47,4.25-.41,4.26,2.34.01,2.76,2.07,4.06,4.56,2.9,2.5-1.16,4.27.12,3.93,2.86-.33,2.74,1.54,4.29,4.17,3.44,2.62-.84,4.22.66,3.54,3.33-.67,2.67.99,4.45,3.7,3.94,2.71-.5,4.1,1.18,3.1,3.75-1,2.57.43,4.53,3.18,4.37,2.75-.16,3.92,1.69,2.61,4.11-1.32,2.42-.15,4.55,2.6,4.74,2.75.18,3.68,2.17,2.07,4.4-1.61,2.24-.72,4.5,1.99,5.03,2.7.53,3.38,2.61,1.5,4.63-1.88,2.02-1.27,4.37,1.34,5.23,2.62.86,3.03,3.01.91,4.78-2.12,1.77-1.81,4.18.68,5.36,2.49,1.18,2.63,3.37.31,4.85-2.32,1.49-2.32,3.92,0,5.41,2.32,1.49,2.18,3.67-.31,4.85-2.49,1.18-2.79,3.6-.68,5.36,2.12,1.77,1.71,3.91-.91,4.78-2.62.86-3.22,3.22-1.34,5.23,1.88,2.02,1.2,4.1-1.5,4.63-2.7.53-3.6,2.79-1.99,5.03,1.61,2.24.68,4.22-2.07,4.4-2.75.18-3.92,2.32-2.6,4.74,1.32,2.42.14,4.27-2.61,4.11-2.75-.16-4.18,1.81-3.18,4.37,1,2.57-.39,4.25-3.1,3.75-2.71-.51-4.37,1.27-3.7,3.94.67,2.67-.92,4.17-3.54,3.33-2.62-.84-4.5.71-4.17,3.44.33,2.74-1.44,4.02-3.93,2.86-2.5-1.16-4.55.14-4.56,2.9-.01,2.76-1.93,3.81-4.26,2.34-2.33-1.47-4.53-.43-4.89,2.3-.36,2.73-2.39,3.54-4.52,1.79-2.13-1.75-4.45-1-5.14,1.67-.7,2.67-2.81,3.21-4.71,1.21-1.9-2-4.28-1.54-5.31,1.01-1.03,2.56-3.2,2.83-4.83.61-1.63-2.22-4.06-2.07-5.39.34-1.34,2.41-3.53,2.41-4.87,0-1.34-2.41-3.77-2.56-5.39-.34-1.63,2.22-3.8,1.95-4.83-.61-1.02-2.56-3.41-3.01-5.31-1.01-1.89,2-4.01,1.46-4.71-1.21-.7-2.67-3.01-3.42-5.14-1.67-2.13,1.75-4.16.94-4.52-1.79-.36-2.73-2.56-3.77-4.89-2.3-2.33,1.47-4.25.41-4.26-2.34-.01-2.76-2.06-4.06-4.56-2.9-2.5,1.16-4.27-.12-3.94-2.86.33-2.74-1.54-4.29-4.17-3.44-2.62.84-4.22-.66-3.55-3.33.67-2.67-.99-4.45-3.7-3.94-2.71.5-4.1-1.18-3.1-3.75,1-2.57-.43-4.53-3.18-4.37-2.75.16-3.92-1.69-2.61-4.11,1.32-2.42.15-4.55-2.6-4.74-2.75-.18-3.68-2.16-2.07-4.4,1.61-2.24.72-4.5-1.99-5.03-2.71-.53-3.38-2.61-1.5-4.63,1.88-2.02,1.27-4.37-1.35-5.23-2.62-.86-3.03-3.01-.91-4.78,2.12-1.77,1.81-4.18-.68-5.36-2.49-1.18-2.62-3.37-.31-4.85,2.32-1.49,2.32-3.92,0-5.41-2.32-1.49-2.18-3.67.31-4.85,2.49-1.18,2.79-3.6.68-5.36-2.12-1.77-1.71-3.91.91-4.78,2.62-.86,3.22-3.22,1.35-5.23-1.88-2.02-1.2-4.1,1.5-4.63,2.71-.53,3.6-2.79,1.99-5.03-1.61-2.24-.68-4.22,2.07-4.4,2.75-.18,3.92-2.32,2.6-4.74-1.32-2.42-.14-4.27,2.61-4.11,2.75.16,4.18-1.81,3.18-4.37-1-2.57.39-4.25,3.1-3.75,2.71.51,4.37-1.27,3.7-3.94-.67-2.67.92-4.17,3.55-3.33,2.63.84,4.5-.71,4.17-3.45-.33-2.74,1.44-4.02,3.94-2.86,2.5,1.16,4.55-.14,4.56-2.9.01-2.76,1.93-3.81,4.26-2.34,2.33,1.47,4.53.43,4.89-2.3.36-2.73,2.39-3.54,4.52-1.79,2.13,1.75,4.44,1,5.14-1.67.7-2.67,2.82-3.21,4.71-1.21,1.9,2,4.28,1.54,5.31-1.01,1.03-2.56,3.2-2.83,4.83-.61,1.63,2.22,4.06,2.07,5.39-.34Z"/>
  </g>
  <g id="Layer_4" data-name="Layer 4">
    <g class="cls-7">
      <path class="cls-1" d="m17.33,59.55s-.03.04-.07.03c-.18-.06-.28-.06-.31.03-.02.04,0,.1.07.12.12.04.35-.07.74-.28.41-.23.71-.28,1.07-.15.49.17.87.58.63,1.27-.13.38-.52.81-1.47.47-.03-.01-.04-.04-.04-.06l.18-.63s.03-.03.06-.03c.21.06.36.04.39-.05.02-.05-.01-.09-.07-.11-.14-.05-.43.09-.8.31-.27.17-.65.26-1.07.11-.5-.18-.74-.71-.56-1.22.24-.68.87-.78,1.43-.58.03.01.04.05.03.07l-.2.69Z"/>
      <path class="cls-1" d="m17.37,58.53c-.51-.2-.71-.72-.49-1.3.23-.57.72-.82,1.27-.61l1.58.62c.52.2.72.73.49,1.3-.22.57-.73.82-1.24.62l-1.61-.63Zm1.81-.29c.07.03.12.02.15-.05.02-.06,0-.11-.08-.13l-1.33-.52c-.06-.02-.12-.01-.15.05-.02.06.02.11.08.13l1.33.52Z"/>
      <path class="cls-1" d="m21.85,54.56s.05.04.04.08l-.32.73s-.05.04-.08.02l-2.22-.98c-.08-.04-.13,0-.15.04-.02.04,0,.1.08.14l2.22.98s.05.04.03.07l-.33.75s-.04.04-.07.03l-2.23-.98c-.08-.04-.13,0-.15.04-.02.04-.01.1.07.14l2.25.99s.03.03.02.06l-.33.75s-.03.03-.06.02l-3.2-1.41s-.03-.04-.02-.07l.32-.72s.27.03.29-.01c0-.02,0-.04-.02-.08-.06-.13-.09-.32-.01-.5.09-.2.23-.29.38-.33.05-.01.08-.02.08-.04,0-.02,0-.05-.02-.08-.05-.15-.1-.33-.01-.54.12-.28.48-.4.8-.26l2.66,1.17Z"/>
      <path class="cls-1" d="m19.64,53.28c-.63-.31-.63-.92-.42-1.35.3-.61.94-.73,1.46-.47l.33.16s.04.05.02.07l-.44.9s0,.04.03.05l.84.41c.09.04.14.02.16-.03.02-.04.01-.1-.07-.14l-.33-.16s-.04-.04-.02-.07l.38-.67s.05-.04.09-.02l.34.17c.69.34.66.91.42,1.4-.28.57-.85.7-1.46.4l-1.33-.65Zm.63-.81s.03,0,.04-.02c.06-.12.07-.14.04-.15-.34-.17-.38-.18-.43-.1-.02.04,0,.1.07.14l.27.13Z"/>
      <path class="cls-1" d="m21.02,50.57s-.04,0-.05.01c-.06.11-.06.12-.1.1l-.77-.41s-.03-.03-.02-.04c.06-.12.07-.13.03-.15l-.46-.25s-.03-.04-.02-.06l.41-.76c.03-.05.04-.05.08-.03l.44.24s.06,0,.07-.02c.09-.16.1-.18.13-.16l.77.41s.03.04.02.06c-.09.16-.1.18-.06.21l1.39.74s.05,0,.06,0c.1-.18.11-.21.14-.19.3.16.82.44.54.98-.17.32-.49.44-1.12.11l-1.46-.78Z"/>
      <path class="cls-1" d="m20.81,48.93s-.03-.03-.02-.05l.41-.72s.04-.03.06-.02l.85.33s.05.01.05,0c0,0-.01-.03-.03-.04l-.71-.6s-.02-.03,0-.05l.39-.69s.04-.03.04-.02l3.42,2.92s.03.04.02.07l-.38.67s-.04.03-.07,0l-1.18-.99s-.05-.03-.08-.04l-2.77-.79Z"/>
      <path class="cls-1" d="m22.35,46.2s.17,0,.19-.02c0-.01,0-.03,0-.08,0-.11.02-.24.09-.36.16-.26.51-.44,1.35.08l1.07.65c.78.48.78.92.62,1.18-.07.12-.17.19-.29.23-.04,0-.06.01-.06.02,0,0,0,.02.03.04l.82.5s.04.05.02.08l-.41.66s-.05.03-.07.02l-3.74-2.29s-.03-.05-.02-.07l.39-.64Zm2.17,1.23c.08.05.16.04.19-.02.03-.05,0-.09-.06-.13l-1.28-.79s-.09-.06-.13.01c-.01.02-.02.05-.01.07,0,.04.03.08.07.1l1.23.75Z"/>
      <path class="cls-1" d="m23.9,45.54c-.59-.39-.51-.99-.25-1.39.37-.57,1.02-.61,1.51-.28l.31.2s.03.05.02.07l-.55.84s0,.04.02.06l.79.52c.08.05.13.04.16,0,.02-.04.02-.1-.05-.15l-.31-.2s-.03-.04-.01-.07l.46-.62s.06-.03.09-.01l.32.21c.64.42.54.99.24,1.45-.35.54-.93.59-1.5.22l-1.24-.81Zm.72-.73s.03,0,.04-.01c.08-.12.09-.13.06-.15-.32-.21-.36-.23-.41-.15-.03.04-.02.09.06.14l.25.16Z"/>
      <path class="cls-1" d="m24.02,41.96s-.04-.06-.02-.1l.49-.69s.05-.04.08-.02l.89.64s.05.02.05.02c0,0,0-.03,0-.07-.02-.14,0-.3.1-.44.15-.2.46-.38.84-.11l2.39,1.72s.02.04,0,.05l-.48.67s-.04.02-.06,0l-2.02-1.45c-.07-.05-.13-.03-.15,0s-.03.1.04.15l2.01,1.44s.03.04.01.06l-.5.7s-.05.02-.07,0l-3.62-2.6Z"/>
      <path class="cls-1" d="m26.9,41.19c-.56-.43-.44-1.02-.14-1.41.41-.54,1.06-.53,1.53-.17l.29.22s.03.05,0,.08l-.61.79s0,.04.02.06l.75.57c.08.06.13.05.16,0,.03-.03.03-.1-.04-.15l-.29-.22s-.03-.04,0-.07l.5-.59s.06-.03.09,0l.3.23c.61.47.47,1.02.13,1.46-.39.51-.97.52-1.51.1l-1.18-.9Zm.77-.67s.03,0,.05-.01c.08-.11.1-.12.07-.14-.3-.23-.34-.25-.4-.18-.03.04-.03.09.04.15l.24.18Z"/>
      <path class="cls-1" d="m27.62,38.76s-.03-.04-.01-.06l.53-.65s.2.06.22.04c0,0,0-.03,0-.05-.07-.14,0-.24.12-.39.01-.01.04-.02.06,0l.67.54s.02.04,0,.06c-.19.24-.14.43.23.74l1.51,1.23s.03.05,0,.08l-.55.68s-.04.02-.06,0l-2.71-2.21Z"/>
      <path class="cls-1" d="m29.38,38.06c-.53-.46-.38-1.05-.06-1.41.44-.51,1.09-.47,1.53-.08l.28.24s.03.05,0,.08l-.65.76s0,.04.01.06l.71.61c.07.06.13.05.16.01.03-.03.04-.1-.03-.15l-.28-.24s-.02-.04,0-.07l.54-.56s.06-.03.09,0l.29.25c.58.5.41,1.05.05,1.46-.42.48-1,.46-1.52.02l-1.12-.97Zm.81-.63s.03,0,.05,0c.09-.1.1-.12.08-.14-.29-.25-.33-.27-.39-.2-.03.04-.03.09.04.15l.23.2Z"/>
      <path class="cls-1" d="m110.52,18.41s-.03-.04.09-.3c.19-.43.69-.68,1.26-.43.6.26.77.79.59,1.21l-.65,1.49s0,.05.12.1c.02,0,.03.04.02.06l-.15.34c-.12.27-.49.49-.8.35-.25-.11-.32-.23-.34-.4-.01-.05-.02-.07-.03-.07,0,0-.03,0-.08.03-.1.06-.27.1-.46.02-.23-.1-.49-.44-.25-.99l.18-.41c.19-.43.58-.54.94-.53.47,0,.52-.05.61-.24.03-.08.02-.13-.03-.15-.09-.04-.1,0-.21.25-.01.03-.04.03-.07.02l-.71-.35Zm.62,1.19s0-.04-.01-.06c-.03-.01-.17-.01-.22.11l-.18.41c-.03.07,0,.11.05.13s.1.01.13-.06l.23-.53Z"/>
      <path class="cls-1" d="m111.69,21.53s-.03-.04-.02-.07l1.49-3.15s.03-.03.06-.02l.68.32s-.03.27,0,.28c0,0,.02,0,.05-.01.16-.08.29-.1.51,0,.26.13.43.46.26.82l-1.25,2.64s-.02.02-.04.01l-.75-.35s-.03-.03-.02-.06l1.05-2.21c.04-.08,0-.13-.04-.15-.04-.02-.1-.01-.14.07l-1.05,2.21s-.03.03-.05.01l-.74-.35Z"/>
      <path class="cls-1" d="m114.65,22.98s-.01-.17-.03-.19c0,0-.03,0-.08,0-.1.02-.24,0-.36-.06-.27-.14-.47-.48-.03-1.35l.57-1.11c.42-.81.86-.85,1.13-.71.12.06.21.15.24.27.01.04.02.06.03.06,0,0,.02,0,.04-.03l.48-.93s.05-.04.08-.03l.69.35s.04.04.03.07l-2.04,3.98s-.05.03-.07.02l-.67-.34Zm1.07-2.25c.04-.08.02-.16-.03-.19-.05-.02-.09.01-.12.07l-.69,1.34s-.05.1.02.14c.02.01.05.01.07,0,.03-.01.07-.03.09-.08l.65-1.27Z"/>
      <path class="cls-1" d="m118.22,22.25s-.03-.04-.01-.07c.09-.16.1-.27.02-.31-.04-.02-.1,0-.13.05-.06.11,0,.35.14.78.15.44.16.74-.03,1.07-.25.45-.72.76-1.36.4-.35-.2-.71-.65-.21-1.53.01-.03.04-.04.06-.03l.59.28s.03.04.02.06c-.1.19-.1.34-.02.39.05.03.09,0,.12-.05.07-.12-.01-.43-.17-.84-.12-.29-.14-.68.08-1.07.26-.46.83-.6,1.29-.34.62.35.62.99.32,1.5-.01.03-.05.03-.08.02l-.64-.31Z"/>
      <path class="cls-1" d="m119.22,22.45c.29-.47.83-.58,1.36-.26.53.32.69.85.38,1.35l-.88,1.45c-.29.48-.84.58-1.36.26-.52-.32-.68-.86-.39-1.33l.9-1.48Zm-.02,1.83c-.04.06-.04.12.02.15s.11,0,.14-.05l.74-1.22c.03-.06.03-.12-.02-.15-.06-.03-.11,0-.14.05l-.74,1.22Z"/>
      <path class="cls-1" d="m122.39,27.55s-.05.04-.08.02l-.67-.44s-.03-.06,0-.08l1.34-2.02c.05-.07.03-.13,0-.16-.04-.03-.1-.02-.15.05l-1.34,2.03s-.05.04-.08.02l-.68-.45s-.04-.04-.01-.07l1.35-2.04c.05-.07.03-.13-.01-.15-.04-.03-.1-.03-.15.05l-1.36,2.05s-.04.02-.06,0l-.68-.45s-.03-.04,0-.06l1.93-2.91s.05-.03.07-.01l.65.43s-.07.26-.04.28c.02,0,.04,0,.08,0,.14-.04.33-.03.49.07.18.12.25.27.26.43,0,.05.01.08.03.09.02.01.05.01.09,0,.15-.03.34-.04.53.08.25.17.32.54.12.83l-1.61,2.42Z"/>
      <path class="cls-1" d="m124,25.57c.41-.57,1.01-.47,1.4-.18.55.4.56,1.05.21,1.52l-.21.3s-.05.03-.08.01l-.81-.59s-.04,0-.06.02l-.55.76c-.06.08-.04.13,0,.16.03.02.1.03.15-.05l.21-.3s.04-.03.07,0l.6.49s.03.06,0,.09l-.22.31c-.45.62-1.01.5-1.46.17-.52-.38-.55-.96-.15-1.51l.87-1.2Zm.7.75s0,.04.01.05c.11.08.13.09.14.07.22-.31.24-.35.17-.4-.04-.03-.09-.02-.15.05l-.18.24Z"/>
      <path class="cls-1" d="m126.44,27.41s.02-.04,0-.06c-.1-.08-.11-.08-.08-.12l.54-.69s.03-.02.04-.01c.11.08.12.09.14.06l.32-.42s.04-.02.06,0l.68.53s.04.05.01.08l-.31.4s-.02.05,0,.07c.15.11.16.12.13.16l-.53.68s-.04.02-.06,0c-.15-.11-.17-.13-.19-.09l-.97,1.24s-.02.05,0,.06c.17.13.18.14.16.17-.21.27-.57.74-1.05.36-.28-.22-.35-.56.09-1.12l1.02-1.31Z"/>
      <path class="cls-1" d="m128.1,27.49s.03-.03.05-.01l.64.52s.02.04.01.06l-.47.78s-.02.04-.01.05c0,0,.03,0,.05-.02l.71-.6s.03-.02.05,0l.61.5s.02.04.01.04l-3.46,2.88s-.05.02-.07,0l-.59-.49s-.02-.05,0-.07l1.17-.99s.04-.04.06-.07l1.25-2.59Z"/>
      <path class="cls-1" d="m130.53,29.47s-.04.17-.01.19c0,0,.03.01.08.01.11,0,.23.06.34.15.22.2.34.58-.3,1.32l-.83.94c-.6.68-1.04.62-1.27.41-.1-.09-.16-.2-.17-.32,0-.04,0-.06-.01-.07,0,0-.02,0-.05.02l-.63.72s-.06.03-.08,0l-.58-.51s-.03-.05,0-.08l2.89-3.29s.06-.02.08,0l.57.5Zm-1.59,1.92c-.06.07-.07.15-.02.19.04.04.09.01.14-.04l.99-1.13s.07-.08.01-.13c-.02-.02-.05-.03-.07-.03-.04,0-.08.02-.11.05l-.95,1.08Z"/>
      <path class="cls-1" d="m130.93,31.12c.48-.52,1.06-.33,1.41,0,.49.46.42,1.11.02,1.54l-.25.27s-.05.02-.08,0l-.73-.68s-.04-.01-.06.01l-.64.69c-.07.07-.06.12-.02.16.03.03.09.04.16-.03l.25-.27s.05-.02.07,0l.53.56s.02.06,0,.09l-.26.28c-.52.56-1.06.36-1.46-.01-.47-.44-.42-1.02.04-1.52l1.01-1.08Zm.59.83s0,.03,0,.05c.1.09.11.11.13.08.26-.28.29-.31.22-.38-.03-.03-.09-.04-.15.03l-.2.22Z"/>
      <path class="cls-1" d="m134.42,31.83s.07-.03.1,0l.59.6s.03.06,0,.08l-.78.76s-.03.05-.03.05c0,0,.03.01.07.02.14,0,.3.05.42.18.18.18.3.52-.04.84l-2.1,2.06s-.04.01-.05,0l-.58-.59s-.02-.04,0-.06l1.77-1.74c.06-.06.05-.12.02-.15s-.09-.05-.15.02l-1.76,1.73s-.05.02-.06,0l-.6-.61s-.01-.06,0-.07l3.18-3.12Z"/>
      <path class="cls-1" d="m134.69,34.79c.52-.48,1.08-.26,1.41.1.46.5.34,1.14-.09,1.54l-.27.25s-.06.02-.08,0l-.68-.74s-.04-.01-.06,0l-.69.64c-.07.06-.07.12-.03.16.03.03.09.05.16-.01l.27-.25s.05-.02.07,0l.49.6s.02.06,0,.09l-.28.26c-.56.52-1.09.29-1.46-.12-.43-.47-.35-1.05.16-1.51l1.09-1.01Zm.53.88s0,.03,0,.05c.09.1.11.11.13.09.28-.26.31-.29.24-.36-.03-.04-.09-.04-.15.02l-.22.2Z"/>
      <path class="cls-1" d="m136.96,35.91s.04-.02.06,0l.55.64s-.09.18-.07.21c0,0,.02.01.05,0,.15-.05.24.05.36.19.01.01,0,.04,0,.05l-.65.57s-.04.02-.06,0c-.2-.23-.4-.21-.77.1l-1.47,1.28s-.06.02-.08,0l-.57-.66s-.01-.04,0-.06l2.64-2.3Z"/>
      <path class="cls-1" d="m137.35,37.77c.55-.45,1.09-.19,1.4.18.43.52.27,1.15-.18,1.53l-.28.23s-.06.02-.08,0l-.63-.77s-.04-.02-.06,0l-.73.6c-.07.06-.08.12-.04.16.03.03.09.05.16,0l.28-.23s.05-.02.07.01l.46.62s.02.06-.01.09l-.3.24c-.59.49-1.1.22-1.45-.2-.41-.49-.29-1.07.24-1.5l1.15-.94Zm.48.91s-.01.03,0,.05c.09.11.1.12.12.1.3-.24.33-.27.26-.35-.03-.04-.08-.05-.15.01l-.23.19Z"/>
      <path class="cls-1" d="m144.34,118.64s.05-.02.29.12c.4.24.58.78.26,1.31-.34.56-.88.66-1.28.42l-1.39-.84s-.05,0-.12.1c-.01.02-.04.02-.06.01l-.32-.19c-.25-.15-.42-.55-.24-.84.14-.24.27-.28.44-.29.05,0,.07-.01.08-.02,0,0,0-.03-.02-.09-.04-.1-.07-.28.04-.46.13-.21.5-.43,1.01-.12l.38.23c.41.24.46.64.41,1-.07.47-.02.52.16.63.07.04.13.03.15-.01.05-.08.02-.1-.22-.24-.03-.02-.03-.04-.01-.07l.45-.66Zm-1.26.45s.04.01.06,0c.02-.03.03-.16-.08-.23l-.38-.23c-.06-.04-.11-.01-.14.03s-.02.1.04.13l.5.3Z"/>
      <path class="cls-1" d="m141.1,119.4s.05-.03.08,0l2.93,1.89s.03.04.01.06l-.41.63s-.26-.06-.27-.04c0,0,0,.02,0,.05.06.16.06.3-.07.51-.16.25-.51.37-.85.15l-2.45-1.59s-.02-.03,0-.04l.45-.69s.04-.03.06-.01l2.05,1.33c.08.05.13.03.15-.01.03-.04.03-.1-.05-.15l-2.06-1.33s-.02-.03,0-.05l.45-.69Z"/>
      <path class="cls-1" d="m139.27,122.15s.17.01.19,0c0,0,0-.03,0-.08,0-.11.03-.23.11-.35.17-.25.54-.41,1.34.15l1.03.71c.75.52.73.96.56,1.21-.08.11-.18.18-.29.2-.04,0-.06.02-.07.03,0,0,0,.02.03.04l.86.6s.04.05.02.08l-.44.64s-.04.04-.07.02l-3.68-2.54s-.03-.06-.01-.08l.43-.62Zm2.09,1.35c.07.05.16.04.19,0,.03-.04,0-.09-.05-.13l-1.23-.85s-.09-.06-.14,0c-.01.02-.02.05-.01.07,0,.03.02.07.07.1l1.17.81Z"/>
      <path class="cls-1" d="m139.52,125.79s.04-.03.07,0c.15.11.25.14.3.06.03-.04.02-.1-.03-.14-.1-.08-.35-.04-.79.04-.46.09-.76.06-1.06-.17-.41-.31-.66-.82-.22-1.4.24-.32.74-.62,1.54-.01.02.02.03.05.02.07l-.36.54s-.04.02-.06.01c-.18-.12-.33-.14-.38-.07-.03.04-.02.09.03.13.11.09.43.04.86-.06.3-.08.69-.05,1.05.22.42.32.49.9.17,1.33-.43.57-1.06.48-1.53.12-.02-.02-.02-.06,0-.08l.4-.59Z"/>
      <path class="cls-1" d="m139.2,126.75c.43.34.46.9.08,1.38s-.94.57-1.39.2l-1.33-1.07c-.43-.35-.47-.91-.08-1.39.38-.48.94-.56,1.37-.22l1.35,1.08Zm-1.81-.26c-.06-.04-.11-.05-.15,0-.04.05-.02.1.03.15l1.11.89c.05.04.12.05.15,0,.04-.05.02-.11-.03-.15l-1.11-.89Z"/>
      <path class="cls-1" d="m133.73,129.22s-.04-.06-.01-.08l.53-.6s.06-.02.09,0l1.83,1.59c.07.06.13.05.16.01.03-.04.04-.1-.03-.16l-1.83-1.6s-.03-.05,0-.08l.54-.62s.05-.03.08,0l1.84,1.61c.07.06.12.04.15,0,.03-.04.04-.09-.03-.15l-1.85-1.61s-.02-.04,0-.06l.54-.62s.04-.02.06,0l2.64,2.3s.02.05,0,.07l-.52.59s-.25-.11-.28-.07c-.01.01-.01.04,0,.08.02.14-.01.33-.14.48-.14.16-.3.21-.46.2-.05,0-.08,0-.09.01-.01.01-.02.05-.01.09,0,.16,0,.35-.15.52-.2.23-.58.24-.84.01l-2.19-1.91Z"/>
      <path class="cls-1" d="m135.47,131.1c.51.49.33,1.06,0,1.42-.47.49-1.11.42-1.54.01l-.26-.25s-.02-.05,0-.08l.69-.73s.01-.04,0-.06l-.68-.65c-.07-.07-.12-.06-.16-.02-.03.03-.04.09.03.16l.27.25s.02.05,0,.07l-.56.53s-.06.02-.09,0l-.28-.26c-.56-.53-.36-1.07.02-1.47.44-.47,1.02-.42,1.52.05l1.08,1.02Zm-.84.59s-.03,0-.05,0c-.09.1-.11.11-.09.13.28.26.31.29.38.22.03-.04.04-.09-.03-.15l-.22-.21Z"/>
      <path class="cls-1" d="m134.74,134.58s.03.07,0,.1l-.6.59s-.06.03-.08,0l-.76-.78s-.05-.03-.05-.03c0,0-.01.03-.02.07,0,.14-.05.3-.18.42-.18.18-.52.29-.84-.04l-2.05-2.1s-.01-.04,0-.05l.59-.58s.04-.02.06,0l1.73,1.77c.06.06.12.05.15.02s.05-.09-.01-.15l-1.73-1.77s-.02-.05,0-.06l.61-.6s.06-.01.07,0l3.11,3.19Z"/>
      <path class="cls-1" d="m131.76,134.83c.48.52.25,1.08-.11,1.41-.5.46-1.14.33-1.53-.1l-.25-.27s-.02-.06,0-.08l.74-.67s.01-.04,0-.06l-.63-.69c-.06-.07-.12-.07-.16-.03-.03.03-.05.09.01.16l.25.27s.02.05,0,.07l-.6.49s-.06.02-.09,0l-.26-.28c-.52-.57-.28-1.09.13-1.46.47-.43,1.05-.34,1.51.16l1,1.1Zm-.88.53s-.03,0-.05,0c-.1.09-.12.1-.09.13.26.28.29.31.36.25.04-.03.04-.09-.02-.15l-.2-.22Z"/>
      <path class="cls-1" d="m130.62,137.11s.02.04,0,.06l-.64.55s-.18-.09-.21-.08c0,0,0,.02,0,.06.05.15-.05.24-.19.36-.01.01-.04,0-.05,0l-.56-.65s-.02-.04,0-.06c.23-.2.22-.4-.1-.77l-1.27-1.47s-.02-.06,0-.08l.66-.57s.04-.01.06,0l2.28,2.65Z"/>
      <path class="cls-1" d="m128.77,137.48c.44.55.19,1.09-.19,1.4-.52.43-1.15.27-1.52-.19l-.23-.28s-.02-.06,0-.08l.77-.63s.02-.04,0-.06l-.59-.73c-.06-.07-.12-.08-.16-.04-.03.03-.05.09,0,.16l.23.28s.02.05-.01.07l-.62.45s-.07.01-.09-.01l-.24-.3c-.48-.59-.22-1.1.21-1.45.5-.4,1.07-.28,1.5.25l.93,1.15Zm-.91.48s-.03-.01-.05,0c-.11.09-.12.1-.1.12.24.3.27.33.35.26.04-.03.05-.08,0-.15l-.19-.23Z"/>
      <path class="cls-1" d="m55.13,147.74s.03.04-.09.3c-.2.43-.71.66-1.27.4-.6-.28-.76-.8-.56-1.23l.68-1.48s0-.05-.12-.11c-.02-.01-.03-.04-.02-.06l.16-.34c.12-.27.5-.47.81-.33.25.11.31.24.34.4,0,.05.02.07.03.07,0,0,.03,0,.08-.03.1-.05.28-.1.47,0,.23.1.48.45.23,1l-.19.4c-.2.43-.59.53-.95.51-.48-.01-.52.04-.61.23-.04.08-.02.13.03.15.09.04.1,0,.22-.24.01-.03.04-.03.07-.02l.71.37Zm-.59-1.2s0,.04.01.06c.03.01.16.02.22-.1l.19-.4c.03-.06,0-.11-.04-.13-.04-.02-.1-.01-.13.05l-.24.53Z"/>
      <path class="cls-1" d="m54.03,144.61s.03.04.02.07l-1.56,3.12s-.04.03-.06.02l-.67-.33s.03-.26.01-.28c0,0-.02,0-.05.01-.16.08-.29.1-.51-.02-.26-.13-.42-.46-.24-.83l1.31-2.62s.02-.02.04-.01l.74.37s.03.03.02.06l-1.09,2.19c-.04.08-.01.13.03.15.04.02.1.02.14-.06l1.1-2.2s.03-.03.05-.01l.73.37Z"/>
      <path class="cls-1" d="m51.1,143.1s0,.17.03.19c.01,0,.03,0,.08,0,.1-.02.24,0,.36.07.26.14.46.49,0,1.35l-.59,1.1c-.43.8-.87.83-1.15.69-.12-.07-.2-.16-.23-.27-.01-.04-.02-.06-.03-.07,0,0-.02,0-.04.03l-.5.92s-.05.04-.08.03l-.68-.37s-.04-.04-.02-.07l2.12-3.94s.05-.03.07-.02l.66.36Zm-1.11,2.23c-.04.08-.03.16.03.19.05.03.09-.01.12-.06l.71-1.32s.05-.1-.01-.14c-.02-.01-.05-.01-.07,0-.03,0-.07.03-.1.08l-.68,1.26Z"/>
      <path class="cls-1" d="m46.97,143.43s.03.04.01.07c-.1.16-.11.26-.03.31.04.03.1.01.13-.04.06-.11,0-.36-.12-.78-.14-.45-.14-.75.06-1.08.27-.44.75-.74,1.37-.36.34.21.69.68.17,1.54-.02.03-.04.04-.06.02l-.58-.3s-.03-.04-.02-.06c.1-.19.11-.34.03-.39-.05-.03-.09,0-.12.04-.07.12,0,.44.14.85.11.3.12.69-.11,1.07-.28.46-.85.58-1.3.3-.62-.37-.59-1.01-.28-1.51.02-.03.05-.03.08-.02l.63.33Z"/>
      <path class="cls-1" d="m45.99,143.2c-.3.46-.85.55-1.37.22-.52-.34-.66-.87-.34-1.36l.92-1.43c.3-.47.85-.56,1.37-.22.51.33.66.88.36,1.34l-.94,1.45Zm.07-1.83c.04-.06.04-.12-.02-.15-.06-.04-.11-.01-.15.05l-.77,1.19c-.04.06-.04.12.02.15.06.04.11,0,.15-.05l.77-1.2Z"/>
      <path class="cls-1" d="m42.97,138s.05-.04.08-.02l.65.46s.03.05,0,.08l-1.4,1.98c-.05.07-.03.13,0,.16.04.03.1.03.15-.05l1.41-1.98s.05-.04.08-.02l.67.47s.03.05.01.08l-1.41,1.99c-.05.07-.03.12,0,.15.04.03.1.03.15-.04l1.42-2s.04-.02.06,0l.67.47s.02.04,0,.06l-2.02,2.85s-.05.03-.07,0l-.64-.45s.08-.26.05-.28c-.01-.01-.04-.01-.08,0-.14.03-.33.02-.49-.09-.18-.12-.24-.28-.25-.44,0-.05,0-.08-.02-.09-.01-.01-.05-.01-.09,0-.15.02-.35.03-.53-.1-.25-.18-.3-.55-.1-.83l1.68-2.37Z"/>
      <path class="cls-1" d="m41.3,139.94c-.43.56-1.02.44-1.41.14-.54-.41-.53-1.06-.17-1.53l.22-.29s.05-.03.08,0l.79.61s.04,0,.06-.02l.57-.75c.06-.08.05-.13,0-.16-.03-.03-.1-.03-.15.04l-.22.29s-.04.03-.07,0l-.59-.5s-.03-.06,0-.09l.23-.3c.47-.61,1.02-.47,1.46-.13.51.39.52.97.1,1.51l-.9,1.18Zm-.67-.77s0-.03-.01-.05c-.11-.08-.12-.09-.14-.07-.23.3-.25.34-.18.4.04.03.09.03.15-.04l.18-.24Z"/>
      <path class="cls-1" d="m37.73,139.54s-.06.04-.1.01l-.65-.54s-.03-.05-.01-.08l.7-.84s.03-.05.02-.05c0,0-.03,0-.07-.01-.14,0-.3-.02-.43-.13-.19-.16-.34-.48-.04-.84l1.89-2.25s.04-.02.05,0l.63.53s.02.04,0,.06l-1.59,1.9c-.06.07-.04.12,0,.15.04.03.09.04.15-.03l1.59-1.9s.04-.03.06,0l.66.55s.02.05,0,.07l-2.86,3.42Z"/>
      <path class="cls-1" d="m37.2,136.63c-.47.53-1.05.36-1.41.03-.5-.45-.45-1.1-.05-1.54l.24-.27s.05-.02.08,0l.74.67s.04.01.06-.01l.63-.7c.06-.07.06-.12.02-.16-.03-.03-.1-.04-.16.03l-.24.27s-.05.02-.07,0l-.55-.55s-.02-.06,0-.09l.26-.29c.51-.57,1.06-.39,1.47-.02.48.43.44,1.01-.01,1.52l-.99,1.11Zm-.61-.82s0-.03,0-.04c-.1-.09-.12-.1-.14-.08-.26.29-.28.32-.21.38.04.03.09.03.15-.03l.2-.22Z"/>
      <path class="cls-1" d="m34.81,135.72s-.04.03-.06,0l-.61-.58s.08-.19.05-.21c0,0-.03,0-.06,0-.14.06-.24-.02-.38-.15-.01-.01-.01-.04,0-.05l.59-.63s.04-.02.06,0c.22.21.42.17.75-.18l1.34-1.41s.05-.02.08,0l.64.6s.02.04,0,.06l-2.41,2.54Z"/>
      <path class="cls-1" d="m34.26,133.92c-.5.5-1.07.3-1.41-.04-.48-.48-.38-1.12.03-1.54l.26-.26s.06-.02.08,0l.71.71s.04.01.06,0l.67-.66c.07-.07.06-.12.03-.16-.03-.03-.09-.04-.16.02l-.26.26s-.05.02-.07,0l-.52-.58s-.02-.06,0-.09l.27-.27c.54-.54,1.08-.33,1.47.06.45.45.39,1.03-.1,1.52l-1.05,1.05Zm-.57-.86s0-.03,0-.05c-.1-.1-.11-.11-.13-.09-.27.27-.3.3-.23.37.03.03.09.04.15-.03l.21-.21Z"/>
      <path class="cls-1" d="m32.14,131.74s-.02.04,0,.05c.09.09.09.1.06.13l-.64.59s-.03.02-.04,0c-.09-.1-.1-.11-.13-.08l-.39.36s-.04.01-.06,0l-.59-.63s-.03-.05,0-.08l.37-.34s.03-.05,0-.07c-.13-.14-.14-.15-.11-.18l.64-.59s.04-.01.06,0c.13.14.14.15.18.12l1.16-1.07s.02-.04.01-.06c-.14-.15-.16-.17-.13-.2.25-.23.69-.64,1.1-.19.24.26.26.61-.27,1.1l-1.22,1.13Z"/>
      <path class="cls-1" d="m31.13,130.74c-.41.36-.97.3-1.38-.16-.41-.46-.4-1.02.04-1.41l1.28-1.12c.42-.37.98-.3,1.38.16.4.46.39,1.03-.02,1.39l-1.3,1.14Zm.57-1.74c.05-.05.07-.1.03-.15-.04-.05-.1-.04-.15,0l-1.07.94s-.07.11-.03.15c.04.05.1.04.15,0l1.07-.94Z"/>
      <path class="cls-1" d="m29.63,129.02c-.43.35-.98.27-1.37-.21-.39-.48-.37-1.03.09-1.4l1.31-1.08c.43-.35.98-.27,1.38.2.39.47.36,1.04-.07,1.39l-1.34,1.1Zm.62-1.72c.06-.04.07-.1.03-.15-.04-.05-.1-.04-.15,0l-1.1.9c-.05.04-.07.1-.03.15.04.05.1.04.15,0l1.1-.9Z"/>
      <path class="cls-1" d="m26.79,128.36s-.05.02-.07,0l-.62-.79s-.02-.06,0-.08l2.66-1.93s.08-.02.1,0l.45.57s.01.07-.01.09l-2.51,2.13Zm2.83-3.47s.07-.02.09.01l.45.58s0,.07-.02.09l-.58.46s-.07.01-.09,0l-.45-.58s-.02-.06,0-.08l.6-.47Z"/>
    </g>
  </g>
  <g id="Layer_5" data-name="Layer 5">
    <g>
      <path class="cls-2" d="m24.76,76.21c-.22-.99-.24-1.16-1-1.29-.29-.05-.52-.25-.6-.62-.17-.78.48-.98.56-1l5.3-1.18,3.78,17.03c.22.99.23,1.15,1,1.29.29.05.52.25.6.62.17.78-.48.98-.56,1l-5.68,1.26c-.08.02-.75.11-.93-.67-.08-.37.04-.66.28-.82.64-.45.58-.61.36-1.6l-3.11-14.03Zm5.16-4.29l.1-.02c1.3-.29,2.66-.65,4.04-.14,1.54.59,2.55,1.91,3.02,3.94.72,3.07-.51,4.75-2.41,5.84v.05c1.88-.05,3.74.27,4.41,3.1l.52,2.36c.05.24.11.79.37.73.32-.07.21-.86.69-.97.26-.06.67.27.75.65.17.78-.27,1.91-.61,2.47-.52.9-1.19,1.27-2.06,1.47-.86.19-1.71.07-2.52-.62-.92-.81-1.28-1.96-1.56-3.22l-.4-1.82c-.27-1.23-.62-2.73-1.87-2.62l-.35-1.58c1.05-.37,1-1.29.71-2.6l-.72-3.24c-.3-1.34-.66-1.93-1.77-2.19l-.35-1.58Z"/>
      <path class="cls-2" d="m38.83,69.95l5.3-1.18,4.44,20.02-5.3,1.18c-.08.02-.75.11-.93-.67-.08-.37.04-.66.28-.82.64-.45.58-.61.36-1.6l-3.11-14.03c-.22-.99-.24-1.16-1-1.29-.28-.05-.52-.25-.6-.62-.17-.78.48-.98.56-1Zm6.21-1.38l4.48-.99,1.21,5.43c.03.13.12.65-.48.78-.34.08-.5-.17-.69-.55-1-2.05-2.32-3.14-4.17-3.12l-.34-1.55Zm1.98,8.94c.78-.48.93-1.61.88-2.67,0-.48.03-.93.45-1.03.62-.14.74.85.78,1.06l1.28,5.78c.05.21.36,1.16-.26,1.29-.42.09-.64-.31-.84-.74-.41-.98-1.02-1.94-1.93-2.04l-.37-1.66Zm2.11,9.53c1.57-.63,2.49-2.38,2.55-4.64.05-.43.08-.89.44-.97.64-.14.76.67.79.78l1.19,5.35-4.62,1.02-.34-1.55Z"/>
      <path class="cls-2" d="m61.56,85.91l-5.1,1.13c-.44.1-.96.16-1.13-.62-.08-.37.04-.66.28-.82.64-.45.58-.61.36-1.6l-3.11-14.03c-.09-.4-.21-1.13-.63-1.21-.44-.1-.84-.09-.99-.76-.15-.7.33-.89.73-.98l5.14-1.14,4.44,20.02Zm-3.54-20.22c3.4-.81,6.95,1.72,8.73,8.57,1.62,6.24-.95,10.72-4.29,11.45l-.34-1.55c1.18-.49.9-2.03.67-3.04l-2.53-11.4c-.23-1.02-.62-2.53-1.9-2.47l-.34-1.55Z"/>
      <path class="cls-1" d="m76.84,82.53l-2.39.53-7.44-16.63c-.21-.49-.29-.66-.7-.8-.34-.12-.55-.21-.66-.7-.2-.88.63-1.07,1.09-1.17l4.66-1.03c.44-.1,1.13-.33,1.32.52.2.91-.76.87-.54,1.86.05.24.13.39.25.65l4.17,9.38.25,7.39Zm.2-21.05l5.59,12.77.21,6.95-2.39.53-5.47-12.32-.21-7.42,2.27-.5Zm4.28,7.62l-.16-4.35c-.02-.39-.01-.73-.1-1.13-.31-1.39-1.53-.9-1.75-1.89-.14-.62.26-.82.62-.9l2.59-.57c.38-.08.84-.13.99.57.09.4-.05.54-.27.76-.87.81-.93,1.81-.89,3.2l.22,7.08-.05-.02-1.2-2.77Z"/>
      <path class="cls-1" d="m94.59,75.44c.22.99.23,1.16,1,1.29.29.05.52.25.6.62.17.78-.48.98-.56.99l-5.68,1.26c-.08.02-.75.11-.93-.67-.08-.37.04-.66.28-.82.64-.45.58-.61.36-1.6l-3.11-14.03c-.22-.99-.24-1.16-1-1.29-.29-.05-.52-.25-.6-.62-.17-.78.48-.98.56-1l5.68-1.26c.08-.02.75-.11.93.67.08.38-.04.66-.28.82-.64.45-.58.61-.36,1.6l3.11,14.03Zm1.25-6.99l-1.77.39-.34-1.55,1.77-.39-1.35-6.08c-.22-.99-.24-1.16-1-1.29-.28-.05-.52-.25-.6-.62-.17-.78.48-.98.56-.99l5.68-1.26c.08-.02.75-.11.93.67.08.37-.04.66-.28.82-.64.45-.58.61-.36,1.6l3.11,14.03c.22.99.24,1.15,1,1.29.29.05.52.25.6.62.17.78-.48.98-.56.99l-5.68,1.26c-.08.02-.75.11-.93-.67-.08-.37.04-.66.28-.82.64-.45.58-.61.36-1.6l-1.42-6.4Z"/>
      <path class="cls-1" d="m111.37,71.72c.22.99.24,1.15,1,1.29.29.05.52.25.6.62.17.78-.48.98-.56.99l-5.68,1.26c-.08.02-.75.11-.93-.67-.08-.37.04-.66.28-.82.64-.45.58-.61.36-1.6l-3.11-14.03c-.22-.99-.24-1.16-1-1.29-.28-.05-.52-.25-.6-.62-.17-.78.48-.98.56-.99l5.68-1.26c.08-.02.75-.11.93.67.08.38-.04.66-.28.82-.64.45-.58.61-.36,1.6l3.11,14.03Z"/>
      <path class="cls-1" d="m110.06,54.15l2.89-.64.34,1.55c-.82,1.22-.71,3.05-.58,4.51.07.6.12,1.32-.44,1.44-.6.13-.81-.52-.83-.63l-1.38-6.24Zm3.79-.84l4.92-1.09,3.78,17.03c.22.99.23,1.16,1,1.29.28.05.52.25.6.62.17.78-.48.98-.56.99l-5.68,1.26c-.08.02-.75.11-.93-.67-.08-.37.04-.66.28-.82.64-.45.58-.61.36-1.6l-3.78-17.03Zm10.1,4.3c.02.11.11.79-.49.92-.56.12-.82-.55-1.01-1.12-.5-1.38-1.17-3.08-2.43-3.84l-.34-1.55,2.89-.64,1.38,6.24Z"/>
      <path class="cls-1" d="m124.12,51.03l5.3-1.18,4.44,20.02-5.3,1.18c-.08.02-.76.11-.93-.67-.08-.37.04-.66.28-.82.64-.45.58-.61.36-1.6l-3.11-14.03c-.22-.99-.24-1.16-1-1.29-.29-.05-.52-.25-.6-.62-.17-.78.48-.98.56-1Zm6.2-1.38l4.48-.99,1.21,5.43c.03.13.12.65-.48.78-.34.08-.5-.17-.69-.55-1-2.05-2.32-3.14-4.17-3.12l-.34-1.55Zm1.98,8.94c.78-.48.93-1.61.88-2.67,0-.48.03-.93.45-1.03.62-.14.74.85.78,1.06l1.28,5.78c.05.21.36,1.16-.26,1.29-.42.09-.64-.31-.84-.74-.41-.98-1.02-1.94-1.93-2.04l-.37-1.66Zm2.11,9.53c1.57-.63,2.49-2.38,2.55-4.64.05-.43.08-.89.44-.97.64-.14.76.67.78.78l1.19,5.35-4.62,1.02-.34-1.55Z"/>
    </g>
    <g>
      <path class="cls-3" d="m38.34,102.17c-.09.27-.14.41-.08.71.06.28.11.4.25.6l2.48,3.6c.55.82.71.67,1.2.56l.73,1.01c-2.88,3.33-6.5.68-7.08-2.29-.41-2.16.54-4.18,1.8-5.16l.69.97Zm-.28-1.64c-.56-.77-1.02-1.88-1.24-2.87-.53-2.38.85-4.37,2.52-4.74l.59-.06.32,1.46c-.32.23-.44.68-.33,1.17.11.49.37.91.62,1.28l6.33,9.22c.3.43.52.76.95.93.26.1.36.17.43.51.14.62-.32.75-.4.76l-3.79.84-6-8.51Zm2.63-7.68c1.05-.05,2.09,1.09,2.39,2.43.25,1.11,0,2.36-.58,3.07l-.67-.97c.31-.58.48-1.05.3-1.82-.16-.73-.61-1.21-1.15-1.41l-.29-1.31Zm4.08,8.8c.08-.38.1-.76,0-1.17-.18-.81-.62-1.03-.7-1.42-.12-.54.49-.92.81-.99.55-.12.83.6.95,1.18.29,1.33.04,2.33-.37,3.41l-.7-1.01Z"/>
      <path class="cls-1" d="m45.78,91.21l3.87-.86.46,2.08c-1.1,1.63-.96,4.08-.78,6.03.09.8.17,1.76-.59,1.93-.8.18-1.08-.7-1.12-.84l-1.85-8.34Zm5.07-1.13l6.58-1.46,5.05,22.76c.29,1.32.32,1.54,1.34,1.73.38.07.69.33.81.83.23,1.04-.64,1.31-.75,1.33l-7.6,1.69c-.11.02-1.01.15-1.24-.89-.11-.5.06-.88.38-1.1.85-.6.78-.81.48-2.13l-5.05-22.76Zm13.5,5.75c.03.14.15,1.06-.66,1.23-.75.17-1.09-.73-1.35-1.5-.66-1.84-1.56-4.12-3.25-5.14l-.46-2.08,3.87-.86,1.85,8.34Z"/>
      <path class="cls-1" d="m66.32,90.86c-.29-1.32-.31-1.54-1.34-1.73-.38-.07-.69-.33-.81-.84-.23-1.04.64-1.31.75-1.33l7.09-1.57,5.05,22.76c.29,1.32.31,1.55,1.34,1.73.38.07.69.33.8.83.23,1.04-.64,1.31-.75,1.33l-7.6,1.68c-.11.02-1.01.15-1.24-.89-.11-.5.06-.88.38-1.1.85-.6.78-.81.48-2.13l-4.16-18.75Zm6.9-5.73l.13-.03c1.75-.39,3.55-.86,5.4-.18,2.06.78,3.41,2.55,4.04,5.26.97,4.1-.68,6.34-3.22,7.81l.02.07c2.49-.06,4.98.36,5.88,4.14l.7,3.15c.07.32.15,1.06.5.98.43-.1.28-1.15.92-1.29.35-.08.9.36,1.01.86.23,1.04-.36,2.56-.82,3.3-.69,1.2-1.59,1.71-2.75,1.96-1.16.26-2.29.09-3.37-.83-1.23-1.08-1.71-2.62-2.08-4.31l-.54-2.43c-.37-1.65-.84-3.64-2.49-3.5l-.47-2.11c1.41-.5,1.34-1.72.95-3.48l-.96-4.33c-.4-1.79-.88-2.58-2.37-2.93l-.47-2.11Z"/>
      <path class="cls-1" d="m100.71,107.67c-2.12.47-3.77.8-5.92-.15-2.81-1.25-3.44-2.54-3.83-4.33l-3.76-16.96c-.29-1.32-.31-1.54-1.34-1.73-.38-.07-.69-.33-.8-.83-.23-1.04.64-1.31.75-1.33l7.6-1.68c.11-.02,1.01-.15,1.24.89.11.5-.06.88-.38,1.1-.85.6-.78.81-.48,2.13l3.82,17.21c.08.36.46,3.24,2.65,3.58l.47,2.11Zm0-22.71c-1.42-4.38-2.83-2.6-3.17-4.14-.25-1.11.87-1.28,1.17-1.35l3.06-.68c.3-.07,1.38-.38,1.63.73.34,1.54-1.69.52-1.12,5.09l2.99,13.49c1.09,5.95-1.62,8.81-3.36,9.23l-.47-2.11c2.25-1.55,2.8-3.62,2.26-6.84l-2.98-13.42Z"/>
      <path class="cls-1" d="m106.01,77.85l7.09-1.57,5.94,26.77-7.09,1.57c-.11.02-1.01.15-1.24-.89-.11-.5.06-.88.38-1.1.85-.6.78-.81.49-2.13l-4.16-18.75c-.29-1.32-.31-1.54-1.34-1.73-.38-.07-.69-.33-.8-.84-.23-1.04.64-1.31.75-1.33Zm8.29-1.84l5.99-1.33,1.61,7.26c.04.18.16.86-.64,1.04-.46.1-.67-.23-.92-.73-1.34-2.74-3.1-4.19-5.57-4.17l-.46-2.08Zm2.65,11.95c1.04-.64,1.24-2.15,1.18-3.56,0-.64.03-1.25.6-1.37.83-.18.98,1.13,1.05,1.42l1.71,7.73c.06.29.48,1.54-.35,1.73-.56.12-.85-.41-1.12-.99-.54-1.31-1.36-2.59-2.58-2.73l-.49-2.22Zm2.83,12.74c2.09-.84,3.32-3.18,3.41-6.2.07-.58.1-1.19.59-1.29.86-.19,1.02.9,1.05,1.04l1.59,7.16-6.17,1.37-.46-2.08Z"/>
    </g>
  </g>
  <g id="Layer_7" data-name="Layer 7">
    <g class="cls-7">
      <circle class="cls-4" cx="83.49" cy="83.36" r="76.9" transform="translate(-11.52 153.32) rotate(-81.32)"/>
    </g>
    <circle class="cls-5" cx="83.49" cy="83.36" r="74.9" transform="translate(-11.52 153.31) rotate(-81.32)"/>
  </g>
</svg>